<svg width="640" height="480" viewBox="0 0 640 480" fill="none" xmlns="http://www.w3.org/2000/svg">
  <defs>
    <linearGradient id="g1" x1="120" y1="40" x2="520" y2="420" gradientUnits="userSpaceOnUse">
      <stop stop-color="#6C7CFF"/>
      <stop offset="1" stop-color="#22D3EE"/>
    </linearGradient>
    <radialGradient id="g2" cx="50%" cy="50%" r="60%">
      <stop offset="0" stop-color="#F8FAFC" stop-opacity="0.95"/>
      <stop offset="1" stop-color="#E2E8F0" stop-opacity="0.1"/>
    </radialGradient>
  </defs>
  <rect x="40" y="30" width="560" height="420" rx="48" fill="url(#g2)" stroke="rgba(255,255,255,0.4)" stroke-width="2"/>
  <circle cx="320" cy="180" r="110" fill="url(#g1)" opacity="0.18"/>
  <g filter="url(#shadow)">
    <rect x="190" y="150" width="260" height="180" rx="32" fill="white" opacity="0.9"/>
  </g>
  <rect x="210" y="170" width="220" height="140" rx="24" fill="#0F172A" stroke="#E2E8F0" stroke-width="2"/>
  <rect x="230" y="188" width="180" height="38" rx="12" fill="#111827"/>
  <circle cx="260" cy="207" r="10" fill="#22C55E"/>
  <circle cx="290" cy="207" r="10" fill="#38BDF8"/>
  <rect x="240" y="240" width="160" height="18" rx="9" fill="#1E293B"/>
  <rect x="240" y="270" width="120" height="18" rx="9" fill="#1E293B" opacity="0.7"/>
  <rect x="370" y="240" width="28" height="48" rx="10" fill="#22D3EE" opacity="0.85"/>
  <rect x="202" y="196" width="14" height="64" rx="6" fill="#22D3EE"/>
  <rect x="424" y="196" width="14" height="64" rx="6" fill="#22D3EE"/>
  <rect x="270" y="310" width="100" height="18" rx="9" fill="#22C55E" opacity="0.9"/>
  <path d="M320 110C330 96 348 88 366 90" stroke="#22D3EE" stroke-width="8" stroke-linecap="round"/>
  <circle cx="366" cy="90" r="10" fill="#22D3EE"/>
  <rect x="296" y="118" width="48" height="16" rx="8" fill="#CBD5E1" opacity="0.9"/>
  <text x="320" y="349" text-anchor="middle" font-size="16" font-family="Arial" fill="#0F172A" opacity="0.8">AI Copilot</text>
  <filter id="shadow" x="150" y="120" width="340" height="260" filterUnits="userSpaceOnUse">
    <feOffset dy="18" />
    <feGaussianBlur stdDeviation="22" result="blur"/>
    <feColorMatrix type="matrix" values="0 0 0 0 0.05 0 0 0 0 0.07 0 0 0 0 0.1 0 0 0 0.25 0"/>
    <feBlend in="SourceGraphic" in2="blur" mode="normal"/>
  </filter>
</svg>
